<?xml version="1.0" encoding="UTF-8"?>
<svg xmlns="http://www.w3.org/2000/svg" version="1.1" viewBox="0 0 256 260">
  <!-- Generator: Adobe Illustrator 28.7.1, SVG Export Plug-In . SVG Version: 1.2.0 Build 142)  -->
  <g>
    <g id="Layer_1">
      <path d="M239.2,106.2c5.9-17.7,3.8-37-5.6-53.1-14.2-24.6-42.6-37.3-70.4-31.4-24.2-26.9-65.7-29.1-92.6-4.9-8.5,7.7-14.9,17.5-18.5,28.4-18.3,3.7-34,15.2-43.2,31.4-14.3,24.6-11.1,55.6,8,76.7-5.9,17.7-3.9,37,5.5,53.1,14.2,24.6,42.6,37.3,70.4,31.4,12.4,13.9,30.1,21.8,48.8,21.7,28.5,0,53.7-18.4,62.4-45.5,18.2-3.7,34-15.2,43.2-31.4,14.1-24.6,10.9-55.4-8.1-76.5h0ZM141.6,242.5c-11.4,0-22.4-4-31.1-11.3l1.5-.9,51.7-29.8c2.6-1.5,4.2-4.3,4.2-7.4v-72.8l21.8,12.6c.2.1.4.3.4.6v60.4c0,26.8-21.8,48.5-48.6,48.6ZM37.2,197.9c-5.7-9.8-7.7-21.4-5.8-32.6l1.5.9,51.7,29.8c2.6,1.5,5.8,1.5,8.4,0l63.2-36.4v25.2c0,.3-.1.5-.4.7l-52.3,30.2c-23.3,13.4-53,5.4-66.4-17.8h0ZM23.5,85.4c5.7-9.9,14.8-17.5,25.6-21.3v61.4c0,3,1.6,5.8,4.2,7.3l62.9,36.3-21.8,12.6c-.2.1-.5.1-.8,0l-52.2-30.1c-23.2-13.5-31.2-43.1-17.8-66.4v.3h0ZM203,127.1l-63.1-36.6,21.8-12.6c.2-.1.5-.1.8,0l52.2,30.2c23.2,13.4,31.2,43.1,17.8,66.4-5.6,9.8-14.5,17.3-25.1,21.3v-61.4c0-3-1.8-5.8-4.4-7.2h0ZM224.8,94.4l-1.5-.9-51.6-30.1c-2.6-1.5-5.9-1.5-8.5,0l-63.1,36.4v-25.2c0-.3,0-.5.3-.7l52.2-30.1c23.3-13.4,53-5.4,66.4,17.9,5.7,9.8,7.7,21.3,5.8,32.5v.2h0ZM88.1,139.1l-21.8-12.6c-.2-.1-.4-.4-.4-.6v-60.2c0-26.9,21.8-48.6,48.7-48.6,11.3,0,22.3,4,31,11.2l-1.5.9-51.7,29.8c-2.6,1.5-4.2,4.3-4.2,7.4v72.7c0,0,0,0,0,0ZM99.9,113.5l28.1-16.2,28.2,16.2v32.4l-28.1,16.2-28.2-16.2v-32.4c0,0,0,0,0,0Z"/>
    </g>
  </g>
</svg>
