<?xml version="1.0" encoding="UTF-8"?>
<svg xmlns="http://www.w3.org/2000/svg" version="1.1" viewBox="0 0 24 24">
  <!-- Generator: Adobe Illustrator 28.7.1, SVG Export Plug-In . SVG Version: 1.2.0 Build 142)  -->
  <g>
    <g id="Layer_1">
      <path d="M.4,0C.2,0,.1.1.1.3s0,0,0,0l2.9,11.7s0,0,0,0l2.9,11.7c0,.1.2.2.3.2,0,0,0,0,.1,0L23.8,7.2c.1-.1.1-.3,0-.4,0,0,0,0-.1,0l-5.8-1.7s0,0-.1,0L6.4,1.7s0,0-.1,0L.5,0s0,0,0,0ZM.8.7l5,1.4-3.7,3.6L.8.7ZM6.6,2.3l4.9,1.4-3.7,3.5-1.2-4.9ZM6.1,2.5l1.2,4.9-4.9-1.4,3.7-3.5ZM12.4,4l4.9,1.4-3.7,3.5-1.2-4.9ZM11.8,4.1l1.2,4.9-4.9-1.4,3.6-3.5ZM18.1,5.7l4.9,1.4-3.7,3.6-1.2-5ZM17.6,5.8l1.2,4.9-4.9-1.4,3.7-3.5ZM2.2,6.5l5,1.4-3.7,3.6-1.2-5ZM8,8.1l4.9,1.4-3.7,3.5-1.2-4.9ZM7.5,8.3l1.2,5-5-1.4,3.7-3.6ZM13.8,9.8l5,1.4-3.7,3.6-1.2-5ZM13.3,9.9l1.2,5-5-1.4,3.7-3.6ZM3.7,12.4l4.9,1.4-3.7,3.5-1.2-4.9ZM9.5,14.1l4.9,1.4-3.6,3.5-1.2-4.9ZM9,14.1l1.2,4.9-4.9-1.4,3.7-3.5ZM5.1,18.1l5,1.4-3.8,3.6-1.3-5.1Z"/>
    </g>
  </g>
</svg>
